<svg xmlns="http://www.w3.org/2000/svg" width="443" height="234" viewBox="0 0 443 234"><defs></defs><style>text{font-family:Arial,Helvetica,sans-serif} .axis{shape-rendering:crispEdges}</style><rect width="100%" height="100%" fill="#fff"/><line x1="194" y1="34" x2="194" y2="210" stroke="#D7E0E5" stroke-width="0.6" class="axis"/><text x="194" y="224" font-size="8.5" text-anchor="middle" fill="#24343D" font-weight="400">0</text><line x1="246.5581395348837" y1="34" x2="246.5581395348837" y2="210" stroke="#D7E0E5" stroke-width="0.6" class="axis"/><text x="246.5581395348837" y="224" font-size="8.5" text-anchor="middle" fill="#24343D" font-weight="400">20</text><line x1="299.1162790697674" y1="34" x2="299.1162790697674" y2="210" stroke="#D7E0E5" stroke-width="0.6" class="axis"/><text x="299.1162790697674" y="224" font-size="8.5" text-anchor="middle" fill="#24343D" font-weight="400">40</text><line x1="351.6744186046511" y1="34" x2="351.6744186046511" y2="210" stroke="#D7E0E5" stroke-width="0.6" class="axis"/><text x="351.6744186046511" y="224" font-size="8.5" text-anchor="middle" fill="#24343D" font-weight="400">60</text><line x1="404.2325581395349" y1="34" x2="404.2325581395349" y2="210" stroke="#D7E0E5" stroke-width="0.6" class="axis"/><text x="404.2325581395349" y="224" font-size="8.5" text-anchor="middle" fill="#24343D" font-weight="400">80</text><circle cx="270" cy="14" r="4" fill="#B9D4DE" stroke="#FFFFFF" stroke-width="0.8"/><text x="278" y="17" font-size="8.5" text-anchor="start" fill="#24343D" font-weight="400">Total</text><polygon points="362,10 366,14 362,18 358,14" fill="#D97706" stroke="#FFFFFF" stroke-width="0.8"/><text x="370" y="17" font-size="8.5" text-anchor="start" fill="#24343D" font-weight="400">Evidência central</text><text x="186" y="47" font-size="8.5" text-anchor="end" fill="#24343D" font-weight="400"><tspan x="186" dy="0">Saúde e medicina</tspan></text><rect x="194" y="38" width="204.97674418604652" height="12" fill="#B9D4DE" rx="0" stroke="none" stroke-width="0"/><rect x="194" y="38" width="31.53488372093023" height="12" fill="#D97706" rx="0" stroke="none" stroke-width="0"/><text x="403.9767441860465" y="47" font-size="8.5" text-anchor="start" fill="#124B61" font-weight="700">78</text><text x="209.7674418604651" y="47" font-size="8.5" text-anchor="middle" fill="#FFFFFF" font-weight="700">12</text><text x="186" y="69" font-size="8.5" text-anchor="end" fill="#24343D" font-weight="400"><tspan x="186" dy="0">Multissetorial</tspan></text><rect x="194" y="60" width="110.37209302325581" height="12" fill="#B9D4DE" rx="0" stroke="none" stroke-width="0"/><rect x="194" y="60" width="13.13953488372093" height="12" fill="#D97706" rx="0" stroke="none" stroke-width="0"/><text x="309.37209302325584" y="69" font-size="8.5" text-anchor="start" fill="#124B61" font-weight="700">42</text><text x="200.56976744186048" y="69" font-size="8.5" text-anchor="middle" fill="#FFFFFF" font-weight="700">5</text><text x="186" y="86" font-size="8.5" text-anchor="end" fill="#24343D" font-weight="400"><tspan x="186" dy="0">Tecnologia e operações</tspan><tspan x="186" dy="10">empresariais</tspan></text><rect x="194" y="82" width="44.674418604651166" height="12" fill="#B9D4DE" rx="0" stroke="none" stroke-width="0"/><rect x="194" y="82" width="13.13953488372093" height="12" fill="#D97706" rx="0" stroke="none" stroke-width="0"/><text x="243.67441860465118" y="91" font-size="8.5" text-anchor="start" fill="#124B61" font-weight="700">17</text><text x="200.56976744186048" y="91" font-size="8.5" text-anchor="middle" fill="#FFFFFF" font-weight="700">5</text><text x="186" y="113" font-size="8.5" text-anchor="end" fill="#24343D" font-weight="400"><tspan x="186" dy="0">Educação</tspan></text><rect x="194" y="104" width="34.16279069767442" height="12" fill="#B9D4DE" rx="0" stroke="none" stroke-width="0"/><text x="233.1627906976744" y="113" font-size="8.5" text-anchor="start" fill="#124B61" font-weight="700">13</text><text x="186" y="135" font-size="8.5" text-anchor="end" fill="#24343D" font-weight="400"><tspan x="186" dy="0">Finanças e seguros</tspan></text><rect x="194" y="126" width="23.651162790697676" height="12" fill="#B9D4DE" rx="0" stroke="none" stroke-width="0"/><text x="222.65116279069767" y="135" font-size="8.5" text-anchor="start" fill="#124B61" font-weight="700">9</text><text x="186" y="157" font-size="8.5" text-anchor="end" fill="#24343D" font-weight="400"><tspan x="186" dy="0">Jurídico e judiciário</tspan></text><rect x="194" y="148" width="18.3953488372093" height="12" fill="#B9D4DE" rx="0" stroke="none" stroke-width="0"/><text x="217.3953488372093" y="157" font-size="8.5" text-anchor="start" fill="#124B61" font-weight="700">7</text><text x="186" y="174" font-size="8.5" text-anchor="end" fill="#24343D" font-weight="400"><tspan x="186" dy="0">Infraestrutura crítica telecom</tspan><tspan x="186" dy="10">e cibersegurança</tspan></text><rect x="194" y="170" width="15.767441860465116" height="12" fill="#B9D4DE" rx="0" stroke="none" stroke-width="0"/><text x="214.7674418604651" y="179" font-size="8.5" text-anchor="start" fill="#124B61" font-weight="700">6</text><text x="186" y="201" font-size="8.5" text-anchor="end" fill="#24343D" font-weight="400"><tspan x="186" dy="0">Governo e setor público</tspan></text><rect x="194" y="192" width="13.13953488372093" height="12" fill="#B9D4DE" rx="0" stroke="none" stroke-width="0"/><rect x="194" y="192" width="2.627906976744186" height="12" fill="#D97706" rx="0" stroke="none" stroke-width="0"/><text x="212.13953488372093" y="201" font-size="8.5" text-anchor="start" fill="#124B61" font-weight="700">5</text><text x="195.3139534883721" y="201" font-size="8.5" text-anchor="middle" fill="#FFFFFF" font-weight="700">1</text><text x="307" y="231" font-size="8.5" text-anchor="middle" fill="#24343D" font-weight="400">Número de estudos</text></svg>