<svg xmlns="http://www.w3.org/2000/svg" width="443" height="198" viewBox="0 0 443 198"><defs></defs><style>text{font-family:Arial,Helvetica,sans-serif} .axis{shape-rendering:crispEdges}</style><rect width="100%" height="100%" fill="#fff"/><line x1="112" y1="35" x2="112" y2="173" stroke="#D7E0E5" stroke-width="0.6" class="axis"/><text x="112" y="187" font-size="8.5" text-anchor="middle" fill="#24343D" font-weight="400">0</text><line x1="189" y1="35" x2="189" y2="173" stroke="#D7E0E5" stroke-width="0.6" class="axis"/><text x="189" y="187" font-size="8.5" text-anchor="middle" fill="#24343D" font-weight="400">40</text><line x1="266" y1="35" x2="266" y2="173" stroke="#D7E0E5" stroke-width="0.6" class="axis"/><text x="266" y="187" font-size="8.5" text-anchor="middle" fill="#24343D" font-weight="400">80</text><line x1="343" y1="35" x2="343" y2="173" stroke="#D7E0E5" stroke-width="0.6" class="axis"/><text x="343" y="187" font-size="8.5" text-anchor="middle" fill="#24343D" font-weight="400">120</text><line x1="420" y1="35" x2="420" y2="173" stroke="#D7E0E5" stroke-width="0.6" class="axis"/><text x="420" y="187" font-size="8.5" text-anchor="middle" fill="#24343D" font-weight="400">160</text><polygon points="228,10 232,14 228,18 224,14" fill="#D97706" stroke="#FFFFFF" stroke-width="0.8"/><text x="236" y="17" font-size="8.5" text-anchor="start" fill="#24343D" font-weight="400">Evidência central</text><circle cx="320" cy="14" r="4" fill="#B9D4DE" stroke="#FFFFFF" stroke-width="0.8"/><text x="328" y="17" font-size="8.5" text-anchor="start" fill="#24343D" font-weight="400">Evidência de apoio</text><text x="104" y="50" font-size="8.5" text-anchor="end" fill="#24343D" font-weight="400">Técnica</text><rect x="112" y="40" width="38.5" height="14" fill="#D97706" rx="0" stroke="none" stroke-width="0"/><rect x="150.5" y="40" width="244.475" height="14" fill="#B9D4DE" rx="0" stroke="none" stroke-width="0"/><text x="131.25" y="50" font-size="8.5" text-anchor="middle" fill="#FFFFFF" font-weight="700">20</text><text x="400.975" y="50" font-size="8.5" text-anchor="start" fill="#124B61" font-weight="700">147</text><text x="104" y="77" font-size="8.5" text-anchor="end" fill="#24343D" font-weight="400">Organizacional</text><rect x="112" y="67" width="36.575" height="14" fill="#D97706" rx="0" stroke="none" stroke-width="0"/><rect x="148.575" y="67" width="198.275" height="14" fill="#B9D4DE" rx="0" stroke="none" stroke-width="0"/><text x="130.2875" y="77" font-size="8.5" text-anchor="middle" fill="#FFFFFF" font-weight="700">19</text><text x="352.85" y="77" font-size="8.5" text-anchor="start" fill="#124B61" font-weight="700">122</text><text x="104" y="104" font-size="8.5" text-anchor="end" fill="#24343D" font-weight="400">Regulatória</text><rect x="112" y="94" width="17.325" height="14" fill="#D97706" rx="0" stroke="none" stroke-width="0"/><rect x="129.325" y="94" width="146.3" height="14" fill="#B9D4DE" rx="0" stroke="none" stroke-width="0"/><text x="120.6625" y="104" font-size="8.5" text-anchor="middle" fill="#FFFFFF" font-weight="700">9</text><text x="281.625" y="104" font-size="8.5" text-anchor="start" fill="#124B61" font-weight="700">85</text><text x="104" y="131" font-size="8.5" text-anchor="end" fill="#24343D" font-weight="400">Interacional</text><rect x="112" y="121" width="23.1" height="14" fill="#D97706" rx="0" stroke="none" stroke-width="0"/><rect x="135.1" y="121" width="71.225" height="14" fill="#B9D4DE" rx="0" stroke="none" stroke-width="0"/><text x="123.55" y="131" font-size="8.5" text-anchor="middle" fill="#FFFFFF" font-weight="700">12</text><text x="212.325" y="131" font-size="8.5" text-anchor="start" fill="#124B61" font-weight="700">49</text><text x="104" y="158" font-size="8.5" text-anchor="end" fill="#24343D" font-weight="400">Evolutiva</text><rect x="112" y="148" width="13.475" height="14" fill="#D97706" rx="0" stroke="none" stroke-width="0"/><rect x="125.475" y="148" width="55.825" height="14" fill="#B9D4DE" rx="0" stroke="none" stroke-width="0"/><text x="118.7375" y="158" font-size="8.5" text-anchor="middle" fill="#FFFFFF" font-weight="700">7</text><text x="187.3" y="158" font-size="8.5" text-anchor="start" fill="#124B61" font-weight="700">36</text><text x="266" y="194" font-size="8.5" text-anchor="middle" fill="#24343D" font-weight="400">Número de estudos</text></svg>