<svg xmlns="http://www.w3.org/2000/svg" width="443" height="256" viewBox="0 0 443 256"><defs></defs><style>text{font-family:Arial,Helvetica,sans-serif} .axis{shape-rendering:crispEdges}</style><rect width="100%" height="100%" fill="#fff"/><text x="205" y="38" font-size="8.5" text-anchor="start" fill="#24343D" font-weight="700" transform="rotate(-35 205 38)">Technical</text><text x="253" y="38" font-size="8.5" text-anchor="start" fill="#24343D" font-weight="700" transform="rotate(-35 253 38)">Interactional</text><text x="301" y="38" font-size="8.5" text-anchor="start" fill="#24343D" font-weight="700" transform="rotate(-35 301 38)">Organizational</text><text x="349" y="38" font-size="8.5" text-anchor="start" fill="#24343D" font-weight="700" transform="rotate(-35 349 38)">Regulatory</text><text x="397" y="38" font-size="8.5" text-anchor="start" fill="#24343D" font-weight="700" transform="rotate(-35 397 38)">Evolutionary</text><text x="173" y="61" font-size="8.5" text-anchor="end" fill="#24343D" font-weight="400"><tspan x="173" dy="0">Compliance and risk</tspan><tspan x="173" dy="10">management</tspan></text><rect x="181" y="51" width="48" height="24" fill="#c3aa51" rx="0" stroke="#FFFFFF" stroke-width="1"/><text x="205" y="66" font-size="8.5" text-anchor="middle" fill="#FFFFFF" font-weight="700">271</text><rect x="229" y="51" width="48" height="24" fill="#a5925e" rx="0" stroke="#FFFFFF" stroke-width="1"/><text x="253" y="66" font-size="8.5" text-anchor="middle" fill="#FFFFFF" font-weight="700">236</text><rect x="277" y="51" width="48" height="24" fill="#e9d140" rx="0" stroke="#FFFFFF" stroke-width="1"/><text x="301" y="66" font-size="8.5" text-anchor="middle" fill="#FFFFFF" font-weight="700">315</text><rect x="325" y="51" width="48" height="24" fill="#fde737" rx="0" stroke="#FFFFFF" stroke-width="1"/><text x="349" y="66" font-size="8.5" text-anchor="middle" fill="#FFFFFF" font-weight="700">339</text><rect x="373" y="51" width="48" height="24" fill="#a08e5f" rx="0" stroke="#FFFFFF" stroke-width="1"/><text x="397" y="66" font-size="8.5" text-anchor="middle" fill="#FFFFFF" font-weight="700">230</text><text x="173" y="85" font-size="8.5" text-anchor="end" fill="#24343D" font-weight="400"><tspan x="173" dy="0">Technical controls and</tspan><tspan x="173" dy="10">evaluation</tspan></text><rect x="181" y="75" width="48" height="24" fill="#586471" rx="0" stroke="#FFFFFF" stroke-width="1"/><text x="205" y="90" font-size="8.5" text-anchor="middle" fill="#FFFFFF" font-weight="700">140</text><rect x="229" y="75" width="48" height="24" fill="#324d6e" rx="0" stroke="#FFFFFF" stroke-width="1"/><text x="253" y="90" font-size="8.5" text-anchor="middle" fill="#FFFFFF" font-weight="700">83</text><rect x="277" y="75" width="48" height="24" fill="#4e5e70" rx="0" stroke="#FFFFFF" stroke-width="1"/><text x="301" y="90" font-size="8.5" text-anchor="middle" fill="#FFFFFF" font-weight="700">125</text><rect x="325" y="75" width="48" height="24" fill="#515f71" rx="0" stroke="#FFFFFF" stroke-width="1"/><text x="349" y="90" font-size="8.5" text-anchor="middle" fill="#FFFFFF" font-weight="700">129</text><rect x="373" y="75" width="48" height="24" fill="#36506f" rx="0" stroke="#FFFFFF" stroke-width="1"/><text x="397" y="90" font-size="8.5" text-anchor="middle" fill="#FFFFFF" font-weight="700">89</text><text x="173" y="114" font-size="8.5" text-anchor="end" fill="#24343D" font-weight="400"><tspan x="173" dy="0">Accountability and auditing</tspan></text><rect x="181" y="99" width="48" height="24" fill="#998a62" rx="0" stroke="#FFFFFF" stroke-width="1"/><text x="205" y="114" font-size="8.5" text-anchor="middle" fill="#FFFFFF" font-weight="700">222</text><rect x="229" y="99" width="48" height="24" fill="#888068" rx="0" stroke="#FFFFFF" stroke-width="1"/><text x="253" y="114" font-size="8.5" text-anchor="middle" fill="#FFFFFF" font-weight="700">202</text><rect x="277" y="99" width="48" height="24" fill="#b19959" rx="0" stroke="#FFFFFF" stroke-width="1"/><text x="301" y="114" font-size="8.5" text-anchor="middle" fill="#FFFFFF" font-weight="700">250</text><rect x="325" y="99" width="48" height="24" fill="#b0985a" rx="0" stroke="#FFFFFF" stroke-width="1"/><text x="349" y="114" font-size="8.5" text-anchor="middle" fill="#FFFFFF" font-weight="700">249</text><rect x="373" y="99" width="48" height="24" fill="#8b8267" rx="0" stroke="#FFFFFF" stroke-width="1"/><text x="397" y="114" font-size="8.5" text-anchor="middle" fill="#FFFFFF" font-weight="700">206</text><text x="173" y="133" font-size="8.5" text-anchor="end" fill="#24343D" font-weight="400"><tspan x="173" dy="0">Explainability, trust and</tspan><tspan x="173" dy="10">limits</tspan></text><rect x="181" y="123" width="48" height="24" fill="#435770" rx="0" stroke="#FFFFFF" stroke-width="1"/><text x="205" y="138" font-size="8.5" text-anchor="middle" fill="#FFFFFF" font-weight="700">109</text><rect x="229" y="123" width="48" height="24" fill="#556271" rx="0" stroke="#FFFFFF" stroke-width="1"/><text x="253" y="138" font-size="8.5" text-anchor="middle" fill="#FFFFFF" font-weight="700">136</text><rect x="277" y="123" width="48" height="24" fill="#4d5d70" rx="0" stroke="#FFFFFF" stroke-width="1"/><text x="301" y="138" font-size="8.5" text-anchor="middle" fill="#FFFFFF" font-weight="700">123</text><rect x="325" y="123" width="48" height="24" fill="#4f5e70" rx="0" stroke="#FFFFFF" stroke-width="1"/><text x="349" y="138" font-size="8.5" text-anchor="middle" fill="#FFFFFF" font-weight="700">126</text><rect x="373" y="123" width="48" height="24" fill="#3c536f" rx="0" stroke="#FFFFFF" stroke-width="1"/><text x="397" y="138" font-size="8.5" text-anchor="middle" fill="#FFFFFF" font-weight="700">98</text><text x="173" y="157" font-size="8.5" text-anchor="end" fill="#24343D" font-weight="400"><tspan x="173" dy="0">Operational learning and</tspan><tspan x="173" dy="10">monitoring</tspan></text><rect x="181" y="147" width="48" height="24" fill="#928664" rx="0" stroke="#FFFFFF" stroke-width="1"/><text x="205" y="162" font-size="8.5" text-anchor="middle" fill="#FFFFFF" font-weight="700">214</text><rect x="229" y="147" width="48" height="24" fill="#7f7b6b" rx="0" stroke="#FFFFFF" stroke-width="1"/><text x="253" y="162" font-size="8.5" text-anchor="middle" fill="#FFFFFF" font-weight="700">192</text><rect x="277" y="147" width="48" height="24" fill="#9d8c61" rx="0" stroke="#FFFFFF" stroke-width="1"/><text x="301" y="162" font-size="8.5" text-anchor="middle" fill="#FFFFFF" font-weight="700">226</text><rect x="325" y="147" width="48" height="24" fill="#9f8e60" rx="0" stroke="#FFFFFF" stroke-width="1"/><text x="349" y="162" font-size="8.5" text-anchor="middle" fill="#FFFFFF" font-weight="700">229</text><rect x="373" y="147" width="48" height="24" fill="#a28f5f" rx="0" stroke="#FFFFFF" stroke-width="1"/><text x="397" y="162" font-size="8.5" text-anchor="middle" fill="#FFFFFF" font-weight="700">232</text><text x="173" y="181" font-size="8.5" text-anchor="end" fill="#24343D" font-weight="400"><tspan x="173" dy="0">Human oversight and</tspan><tspan x="173" dy="10">escalation</tspan></text><rect x="181" y="171" width="48" height="24" fill="#948764" rx="0" stroke="#FFFFFF" stroke-width="1"/><text x="205" y="186" font-size="8.5" text-anchor="middle" fill="#FFFFFF" font-weight="700">216</text><rect x="229" y="171" width="48" height="24" fill="#877f68" rx="0" stroke="#FFFFFF" stroke-width="1"/><text x="253" y="186" font-size="8.5" text-anchor="middle" fill="#FFFFFF" font-weight="700">201</text><rect x="277" y="171" width="48" height="24" fill="#ab955b" rx="0" stroke="#FFFFFF" stroke-width="1"/><text x="301" y="186" font-size="8.5" text-anchor="middle" fill="#FFFFFF" font-weight="700">243</text><rect x="325" y="171" width="48" height="24" fill="#a4915e" rx="0" stroke="#FFFFFF" stroke-width="1"/><text x="349" y="186" font-size="8.5" text-anchor="middle" fill="#FFFFFF" font-weight="700">235</text><rect x="373" y="171" width="48" height="24" fill="#7f7a6b" rx="0" stroke="#FFFFFF" stroke-width="1"/><text x="397" y="186" font-size="8.5" text-anchor="middle" fill="#FFFFFF" font-weight="700">191</text><text x="173" y="210" font-size="8.5" text-anchor="end" fill="#24343D" font-weight="400"><tspan x="173" dy="0">Knowledge governance</tspan></text><rect x="181" y="195" width="48" height="24" fill="#1a385e" rx="0" stroke="#FFFFFF" stroke-width="1"/><text x="205" y="210" font-size="8.5" text-anchor="middle" fill="#FFFFFF" font-weight="700">44</text><rect x="229" y="195" width="48" height="24" fill="#133159" rx="0" stroke="#FFFFFF" stroke-width="1"/><text x="253" y="210" font-size="8.5" text-anchor="middle" fill="#FFFFFF" font-weight="700">32</text><rect x="277" y="195" width="48" height="24" fill="#17355c" rx="0" stroke="#FFFFFF" stroke-width="1"/><text x="301" y="210" font-size="8.5" text-anchor="middle" fill="#FFFFFF" font-weight="700">39</text><rect x="325" y="195" width="48" height="24" fill="#19365d" rx="0" stroke="#FFFFFF" stroke-width="1"/><text x="349" y="210" font-size="8.5" text-anchor="middle" fill="#FFFFFF" font-weight="700">41</text><rect x="373" y="195" width="48" height="24" fill="#133159" rx="0" stroke="#FFFFFF" stroke-width="1"/><text x="397" y="210" font-size="8.5" text-anchor="middle" fill="#FFFFFF" font-weight="700">32</text><text x="173" y="234" font-size="8.5" text-anchor="end" fill="#24343D" font-weight="400"><tspan x="173" dy="0">Contestability and redress</tspan></text><rect x="181" y="219" width="48" height="24" fill="#01214d" rx="0" stroke="#FFFFFF" stroke-width="1"/><text x="205" y="234" font-size="8.5" text-anchor="middle" fill="#FFFFFF" font-weight="700">2</text><rect x="229" y="219" width="48" height="24" fill="#02224d" rx="0" stroke="#FFFFFF" stroke-width="1"/><text x="253" y="234" font-size="8.5" text-anchor="middle" fill="#FFFFFF" font-weight="700">3</text><rect x="277" y="219" width="48" height="24" fill="#02224d" rx="0" stroke="#FFFFFF" stroke-width="1"/><text x="301" y="234" font-size="8.5" text-anchor="middle" fill="#FFFFFF" font-weight="700">3</text><rect x="325" y="219" width="48" height="24" fill="#02224d" rx="0" stroke="#FFFFFF" stroke-width="1"/><text x="349" y="234" font-size="8.5" text-anchor="middle" fill="#FFFFFF" font-weight="700">3</text><rect x="373" y="219" width="48" height="24" fill="#02224d" rx="0" stroke="#FFFFFF" stroke-width="1"/><text x="397" y="234" font-size="8.5" text-anchor="middle" fill="#FFFFFF" font-weight="700">3</text><text x="301" y="253" font-size="8.5" text-anchor="middle" fill="#24343D" font-weight="400">Number of studies by co-occurrence</text></svg>